<?xml version="1.0" standalone="no"?>
<!DOCTYPE svg PUBLIC "-//W3C//DTD SVG 20010904//EN"
 "http://www.w3.org/TR/2001/REC-SVG-20010904/DTD/svg10.dtd">
<svg version="1.0" xmlns="http://www.w3.org/2000/svg"
 width="512.000000pt" height="512.000000pt" viewBox="0 0 512.000000 512.000000"
 preserveAspectRatio="xMidYMid meet">

<g transform="translate(0.000000,512.000000) scale(0.100000,-0.100000)"
fill="#000000" stroke="none">
<path d="M1183 5075 c-510 -81 -944 -447 -1107 -935 -75 -223 -71 -144 -71
-1590 l0 -1295 23 -104 c125 -563 519 -964 1082 -1097 70 -17 172 -19 1400
-22 968 -2 1348 0 1410 8 512 70 959 441 1126 936 50 150 65 245 71 464 6 226
-3 287 -54 382 -40 74 -126 153 -211 195 -68 34 -84 38 -173 41 -79 4 -111 0
-167 -17 -135 -41 -261 -165 -302 -298 -15 -50 -20 -94 -20 -187 -1 -246 -31
-345 -140 -455 -65 -66 -129 -103 -217 -126 -87 -23 -2460 -22 -2548 0 -133
35 -243 127 -304 254 l-36 76 0 1245 0 1245 36 75 c41 86 119 171 196 212 110
60 50 58 1438 58 l1270 0 60 -28 c110 -53 175 -150 183 -278 4 -61 1 -80 -20
-125 -14 -30 -45 -73 -69 -96 -41 -39 -1329 -990 -1354 -999 -6 -3 -107 120
-224 271 -118 152 -232 292 -255 311 -181 155 -458 143 -629 -27 -141 -141
-178 -357 -91 -533 33 -67 718 -955 787 -1020 131 -124 333 -158 502 -86 55
24 1564 1123 1787 1302 208 167 331 313 426 503 226 456 134 1006 -229 1366
-178 176 -405 292 -706 361 l-98 22 -1345 2 c-1065 2 -1362 -1 -1427 -11z"/>
</g>
</svg>
